2.8Hzlow3min_grf.mot
version=1
nRows=27
nColumns 19
inDegrees=yes
endheader
time	1_ground_force_vx	1_ground_force_vy	1_ground_force_vz	1_ground_force_px	1_ground_force_py	1_ground_force_pz	1_ground_torque_x	1_ground_torque_y	1_ground_torque_z	2_ground_force_vx	2_ground_force_vy	2_ground_force_vz	2_ground_force_px	2_ground_force_py	2_ground_force_pz	2_ground_torque_x	2_ground_torque_y	2_ground_torque_z
            1.253500	            0.369749	            1.616760	            1.335868	           -0.233013	            0.005581	           -0.255695	           -0.264921	           -0.137196	           -0.285120	            0.185495	            0.373660	           -1.312752	           -0.232311	            0.006130	           -0.833667	           -0.244056	           -0.048011	           -0.037765
            1.254000	            0.139755	            0.897226	            0.966498	           -0.233013	            0.005581	           -0.255695	           -0.323741	           -0.137649	           -0.219532	            0.091836	            0.372987	           -1.218856	           -0.232311	            0.006130	           -0.833667	           -0.187768	           -0.028902	           -0.037722
            1.254500	            0.093373	            1.979401	            0.833681	           -0.233013	            0.005581	           -0.255695	           -0.243350	           -0.119414	           -0.165252	            0.281147	           -0.178112	           -1.408620	           -0.232311	            0.006130	           -0.833667	           -0.206425	           -0.066713	           -0.056699
            1.255000	            0.185709	            2.158505	            1.109362	           -0.233013	            0.005581	           -0.255695	           -0.236380	           -0.063981	           -0.142330	            0.047583	           -0.363274	           -1.362249	           -0.232311	            0.006130	           -0.833667	           -0.225390	           -0.010267	            0.000062
            1.255500	           -0.042984	            1.797143	            1.291809	           -0.233013	            0.005581	           -0.255695	           -0.262824	            0.000700	           -0.170546	            0.142653	           -0.731567	           -1.269747	           -0.232311	            0.006130	           -0.833667	           -0.262867	           -0.038693	           -0.018873
            1.256000	            0.002616	            1.256945	            1.151809	           -0.233013	            0.005581	           -0.255695	           -0.238067	            0.001123	           -0.262622	            0.094494	           -0.363607	           -1.221485	           -0.232311	            0.006130	           -0.833667	           -0.150171	           -0.038152	           -0.056622
            1.256500	            0.048735	            1.616895	            1.290808	           -0.233013	            0.005581	           -0.255695	           -0.187686	           -0.091517	           -0.204809	            0.235147	           -0.363936	           -0.986904	           -0.232311	            0.006130	           -0.833667	           -0.187691	           -0.047875	           -0.018939
            1.257000	            0.140324	            0.896243	            1.195777	           -0.233013	            0.005581	           -0.255695	           -0.183396	           -0.091316	           -0.238479	            0.231803	            0.556973	           -1.030547	           -0.232311	            0.006130	           -0.833667	           -0.262714	           -0.076638	            0.018692
            1.257500	            0.369524	            0.355687	            1.147034	           -0.233013	            0.005581	           -0.255695	           -0.200023	           -0.118623	           -0.303955	            0.330738	           -0.915206	           -1.223555	           -0.232311	            0.006130	           -0.833667	           -0.244090	           -0.038558	           -0.037731
            1.258000	            0.231294	            1.077706	            0.921187	           -0.233013	            0.005581	           -0.255695	           -0.228087	           -0.091292	           -0.234465	            0.326627	            0.190688	           -1.501182	           -0.232311	            0.006130	           -0.833667	           -0.093654	           -0.075961	           -0.000230
            1.258500	            0.094919	            1.616314	            1.428262	           -0.233013	            0.005581	           -0.255695	           -0.212186	           -0.054764	           -0.146241	           -0.141105	            0.004012	           -1.266999	           -0.232311	            0.006130	           -0.833667	           -0.187716	           -0.047673	           -0.075490
            1.259000	            0.094350	            1.617297	            1.198983	           -0.233013	            0.005581	           -0.255695	           -0.146430	            0.001266	           -0.277751	            0.094494	           -0.363607	           -1.221485	           -0.232311	            0.006130	           -0.833667	           -0.187887	           -0.000409	           -0.075321
            1.259500	            0.003023	            0.895823	            1.287830	           -0.233013	            0.005581	           -0.255695	           -0.225025	            0.019779	           -0.300158	            0.331443	           -1.099689	           -1.130356	           -0.232311	            0.006130	           -0.833667	           -0.112711	           -0.009591	           -0.075387
            1.260000	            0.186476	            1.075928	            1.334004	           -0.233013	            0.005581	           -0.255695	           -0.283233	           -0.091309	           -0.236283	           -0.001158	            0.188165	           -1.125617	           -0.232311	            0.006130	           -0.833667	           -0.093977	            0.009248	           -0.037627
            1.260500	            0.232172	            1.256399	            1.288807	           -0.233013	            0.005581	           -0.255695	           -0.187425	           -0.146893	           -0.197215	            0.191620	           -1.284847	           -0.990169	           -0.232311	            0.006130	           -0.833667	           -0.168829	           -0.066779	           -0.000164
            1.261000	            0.232187	            1.796999	            1.336982	           -0.233013	            0.005581	           -0.255695	           -0.171056	           -0.109753	           -0.234712	            0.137418	            0.740950	           -1.076778	           -0.232311	            0.006130	           -0.833667	           -0.187385	           -0.123765	            0.056192
            1.261500	            0.368790	            1.257998	            0.921619	           -0.233013	            0.005581	           -0.255695	           -0.246870	           -0.072907	           -0.190886	           -0.093611	           -0.179800	           -1.314604	           -0.232311	            0.006130	           -0.833667	           -0.187648	           -0.066578	           -0.075557
            1.262000	            0.094464	            1.617100	            1.244839	           -0.233013	            0.005581	           -0.255695	           -0.260961	           -0.054296	           -0.258907	            0.093103	            0.005192	           -1.360955	           -0.232311	            0.006130	           -0.833667	           -0.168982	           -0.028834	           -0.037730
            1.262500	            0.048117	            1.257543	            1.014127	           -0.233013	            0.005581	           -0.255695	           -0.250928	            0.038030	           -0.241679	            0.140639	           -0.178954	           -1.314704	           -0.232311	            0.006130	           -0.833667	           -0.206452	           -0.048144	            0.037620
            1.263000	            0.323744	            1.256613	            1.242724	           -0.233013	            0.005581	           -0.255695	           -0.241748	           -0.045266	           -0.173937	            0.187447	           -0.178451	           -1.408580	           -0.232311	            0.006130	           -0.833667	           -0.206511	           -0.038490	           -0.018897
            1.263500	            0.140438	            0.896047	            1.241633	           -0.233013	            0.005581	           -0.255695	           -0.241814	           -0.054110	           -0.294569	            0.423088	           -0.546404	           -1.269209	           -0.232311	            0.006130	           -0.833667	           -0.206358	           -0.076435	            0.018668
            1.264000	            0.140681	            1.436254	            1.381520	           -0.233013	            0.005581	           -0.255695	           -0.172838	           -0.100470	           -0.257362	            0.419806	            0.374003	           -1.172068	           -0.232311	            0.006130	           -0.833667	           -0.206359	           -0.067251	            0.094103
            1.264500	            0.278390	            1.075552	            1.425488	           -0.233013	            0.005581	           -0.255695	           -0.230909	           -0.100336	           -0.270139	           -0.234222	           -0.179806	           -1.455329	           -0.232311	            0.006130	           -0.833667	           -0.337787	           -0.095815	            0.018657
            1.265000	            0.231717	            1.257185	            1.105384	           -0.233013	            0.005581	           -0.255695	           -0.217215	           -0.035904	           -0.215463	            0.187386	           -0.177948	           -1.549364	           -0.232311	            0.006130	           -0.833667	           -0.225314	           -0.029239	            0.018845
            1.265500	            0.185676	            2.338771	            1.110135	           -0.233013	            0.005581	           -0.255695	           -0.255271	           -0.045498	           -0.142211	            0.325941	            0.375004	           -1.547453	           -0.232311	            0.006130	           -0.833667	           -0.187769	           -0.019718	            0.037713
            1.266000	            0.140340	            1.436844	            1.243952	           -0.233013	            0.005581	           -0.255695	           -0.204578	           -0.017210	           -0.275725	            0.089198	            1.109413	           -1.169300	           -0.232311	            0.006130	           -0.833667	           -0.168898	           -0.047874	           -0.000097
            1.266500	            0.278213	            0.174814	            1.284056	           -0.233013	            0.005581	           -0.255695	           -0.280937	           -0.007675	           -0.325979	            0.327956	           -0.177608	           -1.502496	           -0.232311	            0.006130	           -0.833667	           -0.206537	           -0.029104	           -0.000013
